<svg class="quote-icon" id="quote_icon" data-name="Quote Icon" xmlns="http://www.w3.org/2000/svg" viewBox="0 0 396 286.32">
<title>quotes</title>
<path fill="#cccccc" d="M187.19,78.17C158.29,84.75,132,96.57,111,117.58,154.35,120.2,188.5,153,188.5,197.7c0,52.54-38.08,90.62-90.62,90.62C40.08,288.32,2,237.1,2,181.93,2,86.06,101.81,20.39,187.19,2V78.17Zm209.5,0c-28.9,6.57-55.17,18.39-76.18,39.4C363.85,120.2,398,153,398,197.7c0,52.54-38.08,90.62-90.62,90.62-57.79,0-95.88-51.22-95.88-106.38C211.5,86.06,311.32,20.39,396.69,2V78.17Z" transform="translate(-2 -2)"/>
</svg>
